<svg width="35" height="34" fill="none" xmlns="http://www.w3.org/2000/svg"><g clip-path="url(#a)"><path d="M11.375 17.866h10.378l-3.177 3.778a.865.865 0 0 0-.198.635c.02.229.133.44.312.587a.882.882 0 0 0 1.234-.112l4.375-5.2c.03-.041.056-.085.079-.13 0-.043.043-.07.06-.113A.86.86 0 0 0 24.5 17a.86.86 0 0 0-.061-.313c0-.043-.044-.069-.061-.112a1.035 1.035 0 0 0-.08-.13l-4.374-5.2a.874.874 0 0 0-.674-.312.88.88 0 0 0-.776.463.859.859 0 0 0 .102.959l3.177 3.778H11.375a.88.88 0 0 0-.619.254.862.862 0 0 0 0 1.225.879.879 0 0 0 .619.254Z" fill="#233543"/></g><path d="M4.5 1h26v-2h-26v2Zm29 3v26h2V4h-2Zm-3 29h-26v2h26v-2Zm-29-3V4h-2v26h2Zm3 3a3 3 0 0 1-3-3h-2a5 5 0 0 0 5 5v-2Zm29-3a3 3 0 0 1-3 3v2a5 5 0 0 0 5-5h-2Zm-3-29a3 3 0 0 1 3 3h2a5 5 0 0 0-5-5v2Zm-26-2a5 5 0 0 0-5 5h2a3 3 0 0 1 3-3v-2Z" fill="#233543"/><defs><clipPath id="a"><path fill="#fff" transform="translate(10.5 10)" d="M0 0h14v14H0z"/></clipPath></defs></svg>