<?xml version="1.0" encoding="UTF-8"?>
<svg width="819px" height="102px" viewBox="0 0 819 102" version="1.1" xmlns="http://www.w3.org/2000/svg" xmlns:xlink="http://www.w3.org/1999/xlink">
    <title>Group</title>
    <defs>
        <linearGradient x1="100%" y1="50%" x2="0%" y2="50%" id="linearGradient-1">
            <stop stop-color="#FDFDFF" stop-opacity="0" offset="0%"></stop>
            <stop stop-color="#F9FBFE" offset="100%"></stop>
        </linearGradient>
    </defs>
    <g id="Page-1" stroke="none" stroke-width="1" fill="none" fill-rule="evenodd">
        <g id="Group" fill-rule="nonzero">
            <path d="M43,16 L811,16 C815.41828,16 819,19.581722 819,24 L819,72 C819,76.418278 815.41828,80 811,80 L43,80 L43,80 L43,16 Z" id="Base" fill="url(#linearGradient-1)"></path>
            <path d="M83,96 C84.656854,96 86,97.3431458 86,99 C86,100.656854 84.656854,102 83,102 C81.343146,102 80,100.656854 80,99 C80,97.3431458 81.343146,96 83,96 Z M67,96 C68.656854,96 70,97.3431458 70,99 C70,100.656854 68.656854,102 67,102 C65.343146,102 64,100.656854 64,99 C64,97.3431458 65.343146,96 67,96 Z M51,96 C52.656854,96 54,97.3431458 54,99 C54,100.656854 52.656854,102 51,102 C49.343146,102 48,100.656854 48,99 C48,97.3431458 49.343146,96 51,96 Z M35,96 C36.656854,96 38,97.3431458 38,99 C38,100.656854 36.656854,102 35,102 C33.343146,102 32,100.656854 32,99 C32,97.3431458 33.343146,96 35,96 Z M19,96 C20.656854,96 22,97.3431458 22,99 C22,100.656854 20.656854,102 19,102 C17.343146,102 16,100.656854 16,99 C16,97.3431458 17.343146,96 19,96 Z M3,96 C4.656854,96 6,97.3431458 6,99 C6,100.656854 4.656854,102 3,102 C1.343146,102 0,100.656854 0,99 C0,97.3431458 1.343146,96 3,96 Z M83,80 C84.656854,80 86,81.3431458 86,83 C86,84.6568542 84.656854,86 83,86 C81.343146,86 80,84.6568542 80,83 C80,81.3431458 81.343146,80 83,80 Z M67,80 C68.656854,80 70,81.3431458 70,83 C70,84.6568542 68.656854,86 67,86 C65.343146,86 64,84.6568542 64,83 C64,81.3431458 65.343146,80 67,80 Z M51,80 C52.656854,80 54,81.3431458 54,83 C54,84.6568542 52.656854,86 51,86 C49.343146,86 48,84.6568542 48,83 C48,81.3431458 49.343146,80 51,80 Z M35,80 C36.656854,80 38,81.3431458 38,83 C38,84.6568542 36.656854,86 35,86 C33.343146,86 32,84.6568542 32,83 C32,81.3431458 33.343146,80 35,80 Z M19,80 C20.656854,80 22,81.3431458 22,83 C22,84.6568542 20.656854,86 19,86 C17.343146,86 16,84.6568542 16,83 C16,81.3431458 17.343146,80 19,80 Z M3,80 C4.656854,80 6,81.3431458 6,83 C6,84.6568542 4.656854,86 3,86 C1.343146,86 0,84.6568542 0,83 C0,81.3431458 1.343146,80 3,80 Z M83,64 C84.656854,64 86,65.3431458 86,67 C86,68.6568542 84.656854,70 83,70 C81.343146,70 80,68.6568542 80,67 C80,65.3431458 81.343146,64 83,64 Z M67,64 C68.656854,64 70,65.3431458 70,67 C70,68.6568542 68.656854,70 67,70 C65.343146,70 64,68.6568542 64,67 C64,65.3431458 65.343146,64 67,64 Z M51,64 C52.656854,64 54,65.3431458 54,67 C54,68.6568542 52.656854,70 51,70 C49.343146,70 48,68.6568542 48,67 C48,65.3431458 49.343146,64 51,64 Z M35,64 C36.656854,64 38,65.3431458 38,67 C38,68.6568542 36.656854,70 35,70 C33.343146,70 32,68.6568542 32,67 C32,65.3431458 33.343146,64 35,64 Z M19,64 C20.656854,64 22,65.3431458 22,67 C22,68.6568542 20.656854,70 19,70 C17.343146,70 16,68.6568542 16,67 C16,65.3431458 17.343146,64 19,64 Z M3,64 C4.656854,64 6,65.3431458 6,67 C6,68.6568542 4.656854,70 3,70 C1.343146,70 0,68.6568542 0,67 C0,65.3431458 1.343146,64 3,64 Z M83,48 C84.656854,48 86,49.3431458 86,51 C86,52.6568542 84.656854,54 83,54 C81.343146,54 80,52.6568542 80,51 C80,49.3431458 81.343146,48 83,48 Z M67,48 C68.656854,48 70,49.3431458 70,51 C70,52.6568542 68.656854,54 67,54 C65.343146,54 64,52.6568542 64,51 C64,49.3431458 65.343146,48 67,48 Z M51,48 C52.656854,48 54,49.3431458 54,51 C54,52.6568542 52.656854,54 51,54 C49.343146,54 48,52.6568542 48,51 C48,49.3431458 49.343146,48 51,48 Z M35,48 C36.656854,48 38,49.3431458 38,51 C38,52.6568542 36.656854,54 35,54 C33.343146,54 32,52.6568542 32,51 C32,49.3431458 33.343146,48 35,48 Z M19,48 C20.656854,48 22,49.3431458 22,51 C22,52.6568542 20.656854,54 19,54 C17.343146,54 16,52.6568542 16,51 C16,49.3431458 17.343146,48 19,48 Z M3,48 C4.656854,48 6,49.3431458 6,51 C6,52.6568542 4.656854,54 3,54 C1.343146,54 0,52.6568542 0,51 C0,49.3431458 1.343146,48 3,48 Z M83,32 C84.656854,32 86,33.3431458 86,35 C86,36.6568542 84.656854,38 83,38 C81.343146,38 80,36.6568542 80,35 C80,33.3431458 81.343146,32 83,32 Z M67,32 C68.656854,32 70,33.3431458 70,35 C70,36.6568542 68.656854,38 67,38 C65.343146,38 64,36.6568542 64,35 C64,33.3431458 65.343146,32 67,32 Z M51,32 C52.656854,32 54,33.3431458 54,35 C54,36.6568542 52.656854,38 51,38 C49.343146,38 48,36.6568542 48,35 C48,33.3431458 49.343146,32 51,32 Z M35,32 C36.656854,32 38,33.3431458 38,35 C38,36.6568542 36.656854,38 35,38 C33.343146,38 32,36.6568542 32,35 C32,33.3431458 33.343146,32 35,32 Z M19,32 C20.656854,32 22,33.3431458 22,35 C22,36.6568542 20.656854,38 19,38 C17.343146,38 16,36.6568542 16,35 C16,33.3431458 17.343146,32 19,32 Z M3,32 C4.656854,32 6,33.3431458 6,35 C6,36.6568542 4.656854,38 3,38 C1.343146,38 0,36.6568542 0,35 C0,33.3431458 1.343146,32 3,32 Z M83,16 C84.656854,16 86,17.3431458 86,19 C86,20.6568542 84.656854,22 83,22 C81.343146,22 80,20.6568542 80,19 C80,17.3431458 81.343146,16 83,16 Z M67,16 C68.656854,16 70,17.3431458 70,19 C70,20.6568542 68.656854,22 67,22 C65.343146,22 64,20.6568542 64,19 C64,17.3431458 65.343146,16 67,16 Z M51,16 C52.656854,16 54,17.3431458 54,19 C54,20.6568542 52.656854,22 51,22 C49.343146,22 48,20.6568542 48,19 C48,17.3431458 49.343146,16 51,16 Z M35,16 C36.656854,16 38,17.3431458 38,19 C38,20.6568542 36.656854,22 35,22 C33.343146,22 32,20.6568542 32,19 C32,17.3431458 33.343146,16 35,16 Z M19,16 C20.656854,16 22,17.3431458 22,19 C22,20.6568542 20.656854,22 19,22 C17.343146,22 16,20.6568542 16,19 C16,17.3431458 17.343146,16 19,16 Z M3,16 C4.656854,16 6,17.3431458 6,19 C6,20.6568542 4.656854,22 3,22 C1.343146,22 0,20.6568542 0,19 C0,17.3431458 1.343146,16 3,16 Z M83,0 C84.656854,0 86,1.34314575 86,3 C86,4.65685425 84.656854,6 83,6 C81.343146,6 80,4.65685425 80,3 C80,1.34314575 81.343146,0 83,0 Z M67,0 C68.656854,0 70,1.34314575 70,3 C70,4.65685425 68.656854,6 67,6 C65.343146,6 64,4.65685425 64,3 C64,1.34314575 65.343146,0 67,0 Z M51,0 C52.656854,0 54,1.34314575 54,3 C54,4.65685425 52.656854,6 51,6 C49.343146,6 48,4.65685425 48,3 C48,1.34314575 49.343146,0 51,0 Z M35,0 C36.656854,0 38,1.34314575 38,3 C38,4.65685425 36.656854,6 35,6 C33.343146,6 32,4.65685425 32,3 C32,1.34314575 33.343146,0 35,0 Z M19,0 C20.656854,0 22,1.34314575 22,3 C22,4.65685425 20.656854,6 19,6 C17.343146,6 16,4.65685425 16,3 C16,1.34314575 17.343146,0 19,0 Z M3,0 C4.656854,0 6,1.34314575 6,3 C6,4.65685425 4.656854,6 3,6 C1.343146,6 0,4.65685425 0,3 C0,1.34314575 1.343146,0 3,0 Z" id="Combined-Shape" fill="#DFE3EB"></path>
        </g>
    </g>
</svg>