<svg xmlns="http://www.w3.org/2000/svg" viewBox="0 0 24 24">
  <g fill="#36B37E" fill-rule="evenodd">
    <circle cx="12" cy="12" r="12" opacity=".15"/>
    <path fill-rule="nonzero" d="M10.3984 15.8242 7.1367 12.582C7.0456 12.491 7 12.3737 7 12.2305c0-.1433.0456-.2604.1367-.3516l.7227-.7031c.0911-.1042.205-.1563.3418-.1563s.2571.0521.3613.1563l2.1875 2.1875 4.6875-4.6875c.1041-.1042.2246-.1563.3613-.1563.1367 0 .2507.0521.3418.1563l.7227.7031c.0911.0912.1367.2084.1367.3516s-.0456.2604-.1367.3515l-5.7617 5.7422c-.0912.1042-.2084.1563-.3516.1563-.1432 0-.2604-.0521-.3516-.1563z"/>
  </g>
</svg>