<svg width="2560" height="180" viewBox="0 0 2560 180" fill="none" xmlns="http://www.w3.org/2000/svg">
<g clip-path="url(#clip0_625_99435)">
<path opacity="0.2" fill-rule="evenodd" clip-rule="evenodd" d="M1280 2.04111C1321.74 4.40962 1362.66 8.63477 1410.95 13.6221C1422.38 14.8025 1434.23 16.0255 1446.59 17.2768C1496.26 22.3024 1549.3 33.2239 1604.58 44.606C1690.84 62.3676 1782.55 81.2512 1875.4 80.6044C1953.28 80.0619 2041.04 62.2917 2127.3 44.8252C2209.78 28.1238 2290.89 11.7002 2360.68 10.8811C2426.24 10.1117 2496.83 20.5306 2560 32.9888V180H1280V2.04111Z" fill="white"/>
<path opacity="0.2" fill-rule="evenodd" clip-rule="evenodd" d="M0 14.2434V180H1280V4.38606C1168.49 -1.86514 1099.76 5.23172 998.744 15.6632C987.314 16.8436 975.47 18.0667 963.104 19.3179C913.434 24.3435 860.393 35.265 805.114 46.6472C718.853 64.4088 627.142 83.2923 534.293 82.6455C456.413 82.103 368.653 64.3328 282.393 46.8663C199.912 30.1649 118.802 13.7413 49.0123 12.9222C32.9169 12.7333 16.5179 13.2188 0 14.2434Z" fill="white"/>
<path opacity="0.4" d="M2876 143.184C2793.38 129.696 2520.89 72.8158 2380.26 62.1007C2239.64 51.3857 2164.7 63.3232 2032.25 78.8605C1899.79 94.3978 1744.3 156.606 1585.63 155.324C1426.95 154.043 1228.9 73.1614 1080.19 71.1381C931.484 69.1148 757.912 131.171 693.455 143.184V536.143H2876V143.184Z" fill="white"/>
<path opacity="0.4" d="M699.166 221.822C857.09 237.314 1017.52 189.285 1150.84 185.677L1145.08 249.742L1109.87 641.121L-223.536 521.183L-188.332 129.805C-123.058 123.614 55.3765 77.3572 203.304 92.6945C351.232 108.032 541.242 206.331 699.166 221.822Z" fill="white"/>
<path d="M2178.74 106.719C2286.9 113.823 2498.91 168.524 2560 180H881.455C931.027 172.035 1064.52 111.369 1178.89 112.71C1293.25 114.052 1445.57 167.675 1567.6 168.524C1689.64 169.374 1809.22 128.131 1911.09 117.83C2012.96 107.529 2070.59 99.6148 2178.74 106.719Z" fill="white"/>
<path d="M430.014 106.719C538.169 113.823 750.182 168.524 811.273 180H-867.272C-817.7 172.035 -684.209 111.369 -569.842 112.71C-455.475 114.052 -303.158 167.675 -181.123 168.524C-59.0886 169.374 60.4909 128.131 162.361 117.83C264.232 107.529 321.859 99.6148 430.014 106.719Z" fill="white"/>
</g>
<defs>
<clipPath id="clip0_625_99435">
<rect width="2560" height="180" fill="white" transform="translate(2560 180) rotate(-180)"/>
</clipPath>
</defs>
</svg>
