<svg xmlns="http://www.w3.org/2000/svg" xmlns:xlink="http://www.w3.org/1999/xlink" width="275" zoomAndPan="magnify" viewBox="0 0 206.25 262.500001" height="350" preserveAspectRatio="xMidYMid meet" version="1.0"><defs><clipPath id="0c79e69e99"><path d="M 0 0.226562 L 205.503906 0.226562 L 205.503906 261.773438 L 0 261.773438 Z M 0 0.226562 " clip-rule="nonzero"/></clipPath><clipPath id="b1085a625c"><path d="M 95 123 L 192 123 L 192 220.617188 L 95 220.617188 Z M 95 123 " clip-rule="nonzero"/></clipPath><clipPath id="2284fd936a"><path d="M 13.019531 64 L 142 64 L 142 199 L 13.019531 199 Z M 13.019531 64 " clip-rule="nonzero"/></clipPath></defs><g clip-path="url(#0c79e69e99)"><path fill="#ffffff" d="M 0 0.226562 L 206.25 0.226562 L 206.25 1340.851562 L 0 1340.851562 Z M 0 0.226562 " fill-opacity="1" fill-rule="nonzero"/><path fill="#ffffff" d="M 0 0.226562 L 205.503906 0.226562 L 205.503906 261.773438 L 0 261.773438 Z M 0 0.226562 " fill-opacity="1" fill-rule="nonzero"/><path fill="#ffffff" d="M 0 0.226562 L 205.503906 0.226562 L 205.503906 261.773438 L 0 261.773438 Z M 0 0.226562 " fill-opacity="1" fill-rule="nonzero"/></g><path fill="#008037" d="M 129.703125 191.75 C 128.273438 191.75 126.84375 191.207031 125.757812 190.113281 C 123.578125 187.933594 123.578125 184.398438 125.757812 182.21875 L 153.605469 154.371094 C 155.785156 152.191406 159.320312 152.191406 161.5 154.371094 C 163.679688 156.550781 163.679688 160.085938 161.5 162.265625 L 133.652344 190.113281 C 132.558594 191.207031 131.128906 191.75 129.703125 191.75 Z M 129.703125 191.75 " fill-opacity="1" fill-rule="nonzero"/><path fill="#008037" d="M 157.546875 191.75 C 156.121094 191.75 154.691406 191.207031 153.605469 190.113281 L 125.757812 162.265625 C 123.578125 160.085938 123.578125 156.550781 125.757812 154.371094 C 127.9375 152.191406 131.472656 152.191406 133.652344 154.371094 L 161.5 182.21875 C 163.679688 184.398438 163.679688 187.933594 161.5 190.113281 C 160.40625 191.207031 158.976562 191.75 157.546875 191.75 Z M 157.546875 191.75 " fill-opacity="1" fill-rule="nonzero"/><g clip-path="url(#b1085a625c)"><path fill="#008037" d="M 143.625 220.617188 C 116.953125 220.617188 95.253906 198.917969 95.253906 172.246094 C 95.253906 145.574219 116.953125 123.875 143.625 123.875 C 170.296875 123.875 191.996094 145.574219 191.996094 172.246094 C 191.996094 198.917969 170.296875 220.617188 143.625 220.617188 Z M 143.625 135.039062 C 123.109375 135.039062 106.414062 151.730469 106.414062 172.246094 C 106.414062 192.765625 123.109375 209.457031 143.625 209.457031 C 164.140625 209.457031 180.835938 192.765625 180.835938 172.246094 C 180.835938 151.730469 164.140625 135.039062 143.625 135.039062 Z M 143.625 135.039062 " fill-opacity="1" fill-rule="nonzero"/></g><g clip-path="url(#2284fd936a)"><path fill="#008037" d="M 80.4375 198.292969 C 43.363281 198.292969 13.3125 168.242188 13.3125 131.316406 C 13.3125 94.390625 43.355469 64.339844 80.289062 64.339844 C 98.179688 64.339844 114.996094 71.3125 127.640625 83.964844 C 133.378906 89.695312 138.015625 96.421875 141.421875 103.953125 C 142.695312 106.757812 141.445312 110.070312 138.640625 111.335938 C 135.824219 112.601562 132.527344 111.363281 131.25 108.550781 C 128.398438 102.25 124.535156 96.628906 119.75 91.851562 C 109.214844 81.308594 95.199219 75.503906 80.289062 75.503906 C 49.507812 75.503906 24.472656 100.539062 24.472656 131.316406 C 24.472656 162.097656 49.507812 187.128906 80.289062 187.128906 C 83.367188 187.128906 85.945312 189.628906 85.945312 192.710938 C 85.945312 195.792969 83.515625 198.292969 80.4375 198.292969 Z M 80.4375 198.292969 " fill-opacity="1" fill-rule="nonzero"/></g><path fill="#008037" d="M 76.855469 172.023438 C 76.6875 172.023438 76.5 172.015625 76.328125 172 C 55.230469 170.007812 39.320312 152.511719 39.320312 131.308594 C 39.320312 108.746094 57.679688 90.386719 80.242188 90.386719 C 91.128906 90.386719 101.414062 94.621094 109.191406 102.324219 C 111.746094 104.867188 113.953125 107.792969 115.785156 111.046875 C 117.296875 113.722656 116.351562 117.132812 113.664062 118.644531 C 110.960938 120.152344 107.570312 119.203125 106.066406 116.523438 C 104.734375 114.164062 103.132812 112.042969 101.324219 110.242188 C 95.667969 104.644531 88.175781 101.550781 80.242188 101.550781 C 63.832031 101.550781 50.484375 114.898438 50.484375 131.308594 C 50.484375 146.722656 62.046875 159.4375 77.371094 160.890625 C 80.445312 161.179688 82.699219 163.90625 82.410156 166.96875 C 82.132812 169.859375 79.699219 172.023438 76.855469 172.023438 Z M 76.855469 172.023438 " fill-opacity="1" fill-rule="nonzero"/><path fill="#008037" d="M 80.371094 136.898438 C 78.941406 136.898438 77.511719 136.355469 76.425781 135.261719 C 74.246094 133.082031 74.246094 129.546875 76.425781 127.363281 L 124.796875 78.992188 C 126.976562 76.8125 130.511719 76.8125 132.691406 78.992188 C 134.875 81.171875 134.875 84.707031 132.691406 86.890625 L 84.320312 135.261719 C 83.226562 136.355469 81.796875 136.898438 80.371094 136.898438 Z M 80.371094 136.898438 " fill-opacity="1" fill-rule="nonzero"/><path fill="#008037" d="M 149.207031 86.664062 L 130.601562 86.664062 C 127.519531 86.664062 125.019531 84.164062 125.019531 81.085938 L 125.019531 62.480469 C 125.019531 61 125.609375 59.578125 126.65625 58.535156 L 141.542969 43.652344 C 143.140625 42.058594 145.539062 41.566406 147.621094 42.4375 C 149.703125 43.300781 151.066406 45.339844 151.066406 47.597656 L 151.066406 60.621094 L 164.089844 60.621094 C 166.351562 60.621094 168.382812 61.980469 169.246094 64.066406 C 170.101562 66.148438 169.632812 68.550781 168.035156 70.144531 L 153.152344 85.027344 C 152.109375 86.078125 150.6875 86.664062 149.207031 86.664062 Z M 136.183594 75.503906 L 146.890625 75.503906 L 150.613281 71.78125 L 145.484375 71.78125 C 142.40625 71.78125 139.902344 69.28125 139.902344 66.199219 L 139.902344 61.074219 L 136.183594 64.792969 Z M 136.183594 75.503906 " fill-opacity="1" fill-rule="nonzero"/></svg>