<svg xmlns="http://www.w3.org/2000/svg" xmlns:xlink="http://www.w3.org/1999/xlink" width="275" zoomAndPan="magnify" viewBox="0 0 206.25 262.500001" height="350" preserveAspectRatio="xMidYMid meet" version="1.0"><defs><clipPath id="c5d30caf1e"><path d="M 0 0.226562 L 205.503906 0.226562 L 205.503906 261.773438 L 0 261.773438 Z M 0 0.226562 " clip-rule="nonzero"/></clipPath><clipPath id="f780ad27a2"><path d="M 104 140 L 192.539062 140 L 192.539062 204 L 104 204 Z M 104 140 " clip-rule="nonzero"/></clipPath><clipPath id="b67541661c"><path d="M 13.191406 100 L 175 100 L 175 211.808594 L 13.191406 211.808594 Z M 13.191406 100 " clip-rule="nonzero"/></clipPath></defs><g clip-path="url(#c5d30caf1e)"><path fill="#ffffff" d="M 0 0.226562 L 205.503906 0.226562 L 205.503906 261.773438 L 0 261.773438 Z M 0 0.226562 " fill-opacity="1" fill-rule="nonzero"/><path fill="#ffffff" d="M 0 0.226562 L 205.503906 0.226562 L 205.503906 261.773438 L 0 261.773438 Z M 0 0.226562 " fill-opacity="1" fill-rule="nonzero"/></g><path fill="#008037" d="M 121.066406 86.191406 C 129.882812 89.886719 140.023438 85.738281 143.722656 76.925781 C 147.417969 68.113281 143.273438 57.96875 134.457031 54.269531 C 125.644531 50.574219 115.5 54.722656 111.800781 63.535156 C 108.105469 72.351562 112.253906 82.492188 121.066406 86.191406 Z M 119.742188 57.238281 L 120.875 59.199219 L 121.652344 58.75 L 120.519531 56.789062 C 122.550781 55.691406 124.859375 55.042969 127.3125 54.972656 L 127.3125 59.199219 L 128.210938 59.199219 L 128.210938 54.972656 C 130.664062 55.042969 132.972656 55.691406 135.003906 56.785156 L 133.871094 58.75 L 134.648438 59.199219 L 135.78125 57.238281 C 137.800781 58.488281 139.503906 60.191406 140.753906 62.210938 L 138.796875 63.34375 L 139.242188 64.121094 L 141.207031 62.988281 C 142.304688 65.019531 142.949219 67.328125 143.019531 69.78125 L 138.792969 69.78125 L 138.792969 70.679688 L 143.019531 70.679688 C 142.949219 73.132812 142.304688 75.441406 141.207031 77.472656 L 139.246094 76.339844 L 138.796875 77.117188 L 140.753906 78.25 C 139.507812 80.269531 137.800781 81.976562 135.785156 83.222656 L 134.652344 81.261719 L 133.875 81.710938 L 135.007812 83.675781 C 132.976562 84.769531 130.667969 85.417969 128.214844 85.488281 L 128.214844 81.261719 L 127.316406 81.261719 L 127.316406 85.488281 C 124.863281 85.414062 122.550781 84.769531 120.519531 83.671875 L 121.652344 81.710938 L 120.875 81.261719 L 119.742188 83.222656 C 117.726562 81.972656 116.019531 80.269531 114.769531 78.25 L 116.730469 77.117188 L 116.28125 76.339844 L 114.320312 77.472656 C 113.222656 75.441406 112.578125 73.132812 112.507812 70.679688 L 116.730469 70.679688 L 116.730469 69.78125 L 112.507812 69.78125 C 112.578125 67.328125 113.222656 65.019531 114.320312 62.988281 L 116.28125 64.121094 L 116.730469 63.339844 L 114.769531 62.210938 C 116.019531 60.191406 117.722656 58.488281 119.742188 57.238281 Z M 119.742188 57.238281 " fill-opacity="1" fill-rule="nonzero"/><path fill="#008037" d="M 125.8125 81.230469 L 127.988281 71.40625 L 133.535156 77.070312 L 134.511719 76.113281 L 128.339844 69.8125 L 128.828125 67.609375 L 127.855469 67.390625 L 127.507812 68.960938 L 126.527344 67.957031 L 125.546875 68.917969 L 127.152344 70.558594 L 124.835938 81.011719 Z M 125.8125 81.230469 " fill-opacity="1" fill-rule="nonzero"/><g clip-path="url(#f780ad27a2)"><path fill="#008037" d="M 104.125 145.679688 L 180 145.679688 L 180 203.167969 L 184.609375 203.167969 L 184.609375 145.679688 L 192.511719 145.679688 L 192.511719 140.410156 L 104.125 140.410156 Z M 104.125 145.679688 " fill-opacity="1" fill-rule="nonzero"/></g><path fill="#008037" d="M 71.003906 168.558594 L 57.945312 168.558594 L 46.605469 127.59375 C 45.539062 128.472656 44.433594 129.414062 43.289062 130.417969 L 54.753906 171.839844 L 51.582031 202.425781 L 55.511719 202.832031 L 58.46875 174.316406 L 82.230469 174.316406 L 85.1875 202.832031 L 89.117188 202.425781 L 86.015625 172.507812 L 88.042969 172.507812 L 88.042969 172.046875 Z M 71.003906 168.558594 " fill-opacity="1" fill-rule="nonzero"/><g clip-path="url(#b67541661c)"><path fill="#008037" d="M 73.632812 121.097656 C 69.289062 121.621094 65.003906 120.421875 61.570312 117.714844 C 58.152344 115.023438 55.984375 111.167969 55.460938 106.847656 C 55.449219 106.765625 55.445312 106.679688 55.4375 106.597656 C 55.253906 106.628906 55.070312 106.664062 54.886719 106.710938 C 54.3125 106.820312 53.742188 107.023438 53.207031 107.335938 C 52.40625 107.804688 33.390625 119.066406 15.015625 141.855469 C 13.191406 144.121094 13.546875 147.4375 15.8125 149.261719 C 15.828125 149.277344 15.84375 149.289062 15.859375 149.300781 C 18.121094 151.085938 21.40625 150.71875 23.21875 148.46875 C 33.230469 136.050781 43.5625 127.226562 50.445312 122.023438 C 50.476562 122.832031 50.507812 123.636719 50.558594 124.425781 C 51.339844 136.53125 54.671875 147.011719 59.460938 159.898438 C 59.707031 160.5625 60.039062 161.160156 60.425781 161.6875 C 61.53125 163.808594 63.542969 165.4375 66.066406 165.957031 L 66.464844 166.039062 L 96.980469 172.328125 L 107.675781 205.914062 C 108.722656 209.195312 111.632812 211.363281 114.867188 211.621094 C 115.902344 211.703125 116.964844 211.589844 118.015625 211.257812 C 122.34375 209.878906 124.738281 205.25 123.359375 200.917969 L 111.203125 162.746094 C 110.300781 159.910156 107.9375 157.78125 105.023438 157.179688 L 80.089844 152.042969 L 81.316406 150.78125 L 105.328125 155.699219 C 108.773438 156.410156 111.578125 158.933594 112.644531 162.285156 L 116.21875 173.507812 L 134.59375 190.203125 C 137.957031 193.261719 143.160156 193.011719 146.21875 189.648438 C 149.273438 186.285156 149.019531 181.074219 145.664062 178.023438 L 117.964844 152.851562 C 116.574219 151.589844 114.796875 150.839844 112.925781 150.726562 L 87 149.164062 C 83.464844 140.214844 83.589844 133.777344 85.589844 127.28125 L 91.050781 135.640625 C 92.054688 137.175781 93.738281 138.027344 95.464844 138.027344 C 96.296875 138.027344 97.136719 137.828125 97.917969 137.417969 C 98.019531 137.363281 108.390625 132.007812 121.25 135.03125 C 122.308594 135.28125 123.367188 135.191406 124.316406 134.832031 L 124.316406 137 L 157.460938 137 L 174.800781 102.664062 L 171.273438 100.882812 L 155.03125 133.050781 L 126.679688 133.050781 C 127.097656 132.488281 127.414062 131.835938 127.582031 131.109375 C 128.25 128.277344 126.496094 125.445312 123.664062 124.777344 C 112.554688 122.164062 102.875 124.382812 97.492188 126.238281 L 89.46875 113.960938 C 89.269531 113.605469 89.035156 113.25 88.765625 112.90625 C 88.589844 112.664062 88.402344 112.433594 88.191406 112.226562 C 87.769531 111.765625 87.300781 111.34375 86.8125 110.976562 C 84.660156 116.316406 79.742188 120.355469 73.632812 121.097656 Z M 73.632812 121.097656 " fill-opacity="1" fill-rule="nonzero"/></g><path fill="#008037" d="M 56.964844 106.667969 C 57.945312 114.789062 65.328125 120.578125 73.449219 119.59375 C 81.574219 118.609375 87.359375 111.230469 86.378906 103.105469 C 85.394531 94.984375 78.011719 89.195312 69.890625 90.179688 C 61.769531 91.164062 55.980469 98.542969 56.964844 106.667969 Z M 83.1875 108.425781 L 82.71875 110.34375 C 82.644531 110.328125 75.042969 108.554688 69.421875 113.113281 L 68.175781 111.582031 C 74.574219 106.394531 82.839844 108.339844 83.1875 108.425781 Z M 83.1875 108.425781 " fill-opacity="1" fill-rule="nonzero"/><path fill="#008037" d="M 93.953125 98.726562 C 93.953125 98.988281 93.902344 99.238281 93.800781 99.480469 C 93.699219 99.722656 93.558594 99.9375 93.371094 100.121094 C 93.1875 100.308594 92.972656 100.449219 92.730469 100.550781 C 92.488281 100.648438 92.238281 100.699219 91.976562 100.699219 C 91.714844 100.699219 91.460938 100.648438 91.21875 100.550781 C 90.976562 100.449219 90.765625 100.308594 90.578125 100.121094 C 90.394531 99.9375 90.25 99.722656 90.152344 99.480469 C 90.050781 99.238281 90 98.988281 90 98.726562 C 90 98.464844 90.050781 98.210938 90.152344 97.96875 C 90.25 97.726562 90.394531 97.511719 90.578125 97.328125 C 90.765625 97.144531 90.976562 97 91.21875 96.898438 C 91.460938 96.800781 91.714844 96.75 91.976562 96.75 C 92.238281 96.75 92.488281 96.800781 92.730469 96.898438 C 92.972656 97 93.1875 97.144531 93.371094 97.328125 C 93.558594 97.511719 93.699219 97.726562 93.800781 97.96875 C 93.902344 98.210938 93.953125 98.464844 93.953125 98.726562 Z M 93.953125 98.726562 " fill-opacity="1" fill-rule="nonzero"/><path fill="#008037" d="M 99.988281 88.792969 C 99.988281 89.195312 99.910156 89.578125 99.757812 89.949219 C 99.605469 90.316406 99.386719 90.644531 99.101562 90.925781 C 98.820312 91.210938 98.492188 91.429688 98.125 91.582031 C 97.753906 91.734375 97.367188 91.8125 96.96875 91.8125 C 96.570312 91.8125 96.183594 91.734375 95.8125 91.582031 C 95.445312 91.429688 95.117188 91.210938 94.835938 90.925781 C 94.550781 90.644531 94.335938 90.316406 94.179688 89.949219 C 94.027344 89.578125 93.953125 89.195312 93.953125 88.792969 C 93.953125 88.394531 94.027344 88.007812 94.179688 87.640625 C 94.335938 87.269531 94.550781 86.941406 94.835938 86.660156 C 95.117188 86.378906 95.445312 86.160156 95.8125 86.007812 C 96.183594 85.851562 96.570312 85.777344 96.96875 85.777344 C 97.367188 85.777344 97.753906 85.851562 98.125 86.007812 C 98.492188 86.160156 98.820312 86.378906 99.101562 86.660156 C 99.386719 86.941406 99.605469 87.269531 99.757812 87.640625 C 99.910156 88.007812 99.988281 88.394531 99.988281 88.792969 Z M 99.988281 88.792969 " fill-opacity="1" fill-rule="nonzero"/><path fill="#008037" d="M 92.359375 81.660156 C 92.359375 82.0625 92.285156 82.445312 92.128906 82.816406 C 91.976562 83.1875 91.757812 83.511719 91.476562 83.792969 C 91.195312 84.078125 90.867188 84.296875 90.496094 84.449219 C 90.128906 84.601562 89.742188 84.679688 89.34375 84.679688 C 88.941406 84.679688 88.558594 84.601562 88.1875 84.449219 C 87.816406 84.296875 87.492188 84.078125 87.210938 83.792969 C 86.925781 83.511719 86.707031 83.1875 86.554688 82.816406 C 86.402344 82.445312 86.324219 82.0625 86.324219 81.660156 C 86.324219 81.261719 86.402344 80.875 86.554688 80.507812 C 86.707031 80.136719 86.925781 79.8125 87.210938 79.527344 C 87.492188 79.246094 87.816406 79.027344 88.1875 78.875 C 88.558594 78.71875 88.941406 78.644531 89.34375 78.644531 C 89.742188 78.644531 90.128906 78.71875 90.496094 78.875 C 90.867188 79.027344 91.195312 79.246094 91.476562 79.527344 C 91.757812 79.8125 91.976562 80.136719 92.128906 80.507812 C 92.285156 80.875 92.359375 81.261719 92.359375 81.660156 Z M 92.359375 81.660156 " fill-opacity="1" fill-rule="nonzero"/><path fill="#008037" d="M 102.457031 74.71875 C 102.457031 75.21875 102.359375 75.699219 102.167969 76.160156 C 101.980469 76.617188 101.707031 77.027344 101.355469 77.378906 C 101.003906 77.730469 100.597656 78 100.136719 78.191406 C 99.675781 78.382812 99.195312 78.480469 98.695312 78.480469 C 98.199219 78.480469 97.71875 78.382812 97.257812 78.191406 C 96.796875 78 96.390625 77.730469 96.039062 77.378906 C 95.6875 77.027344 95.414062 76.617188 95.226562 76.160156 C 95.035156 75.699219 94.9375 75.21875 94.9375 74.71875 C 94.9375 74.222656 95.035156 73.742188 95.226562 73.28125 C 95.414062 72.820312 95.6875 72.414062 96.039062 72.0625 C 96.390625 71.710938 96.796875 71.4375 97.257812 71.25 C 97.71875 71.058594 98.199219 70.960938 98.695312 70.960938 C 99.195312 70.960938 99.675781 71.058594 100.136719 71.25 C 100.597656 71.4375 101.003906 71.710938 101.355469 72.0625 C 101.707031 72.414062 101.980469 72.820312 102.167969 73.28125 C 102.359375 73.742188 102.457031 74.222656 102.457031 74.71875 Z M 102.457031 74.71875 " fill-opacity="1" fill-rule="nonzero"/></svg>