<svg xmlns="http://www.w3.org/2000/svg" xmlns:xlink="http://www.w3.org/1999/xlink" width="275" zoomAndPan="magnify" viewBox="0 0 206.25 262.500001" height="350" preserveAspectRatio="xMidYMid meet" version="1.0"><defs><clipPath id="4e4af083ce"><path d="M 0 0.226562 L 205.503906 0.226562 L 205.503906 261.773438 L 0 261.773438 Z M 0 0.226562 " clip-rule="nonzero"/></clipPath><clipPath id="a3700345e9"><path d="M 101 165 L 176 165 L 176 220.671875 L 101 220.671875 Z M 101 165 " clip-rule="nonzero"/></clipPath><clipPath id="37c9079c17"><path d="M 19.722656 189 L 96 189 L 96 199 L 19.722656 199 Z M 19.722656 189 " clip-rule="nonzero"/></clipPath><clipPath id="3d4ba20d74"><path d="M 148 138 L 184.875 138 L 184.875 172 L 148 172 Z M 148 138 " clip-rule="nonzero"/></clipPath></defs><g clip-path="url(#4e4af083ce)"><path fill="#ffffff" d="M 0 0.226562 L 205.503906 0.226562 L 205.503906 261.773438 L 0 261.773438 Z M 0 0.226562 " fill-opacity="1" fill-rule="nonzero"/><path fill="#ffffff" d="M 0 0.226562 L 205.503906 0.226562 L 205.503906 261.773438 L 0 261.773438 Z M 0 0.226562 " fill-opacity="1" fill-rule="nonzero"/></g><g clip-path="url(#a3700345e9)"><path fill="#008037" d="M 145.472656 172.71875 C 143.742188 174.855469 141.285156 176.191406 138.550781 176.476562 C 138.1875 176.515625 137.824219 176.53125 137.46875 176.53125 C 134.953125 176.53125 132.640625 175.625 130.847656 174.109375 C 126.757812 177.527344 122.289062 180.703125 119.085938 181.425781 C 111.511719 183.136719 101.136719 198.214844 101.136719 198.214844 L 136.421875 220.644531 C 136.421875 220.644531 147.667969 201.359375 155.457031 199.414062 C 161.949219 197.789062 170.871094 186.511719 173.664062 182.800781 L 174.355469 183.15625 L 175.800781 180.359375 L 147.753906 165.882812 C 147.839844 168.367188 147.050781 170.769531 145.472656 172.71875 Z M 145.472656 172.71875 " fill-opacity="1" fill-rule="nonzero"/></g><path fill="#008037" d="M 108.242188 145.492188 L 110.632812 150.292969 L 126.308594 158.378906 L 125.914062 154.613281 Z M 108.242188 145.492188 " fill-opacity="1" fill-rule="nonzero"/><path fill="#008037" d="M 104.761719 129.5 L 126.09375 136.894531 L 129.257812 167.101562 C 129.703125 171.347656 133.289062 174.507812 137.46875 174.507812 C 137.757812 174.507812 138.046875 174.492188 138.339844 174.464844 C 142.878906 173.988281 146.175781 169.917969 145.699219 165.378906 L 141.988281 129.941406 C 141.652344 126.75 139.503906 124.039062 136.472656 122.988281 L 122.109375 118.007812 L 122.652344 116.054688 L 131.214844 85.175781 L 142.699219 93.136719 L 147.183594 117.113281 C 147.671875 119.710938 149.9375 121.519531 152.484375 121.519531 C 152.8125 121.519531 153.148438 121.488281 153.484375 121.425781 C 156.414062 120.878906 158.34375 118.058594 157.796875 115.125 L 152.902344 88.96875 C 152.640625 87.574219 151.839844 86.335938 150.671875 85.523438 L 132.304688 72.792969 C 129.867188 74.164062 127.074219 74.945312 124.144531 74.945312 C 122.636719 74.945312 121.128906 74.742188 119.660156 74.332031 C 115.355469 73.136719 111.769531 70.335938 109.570312 66.445312 C 109.480469 66.289062 109.402344 66.128906 109.316406 65.96875 L 104.453125 64.621094 C 103.445312 64.339844 102.425781 64.378906 101.496094 64.671875 C 101.351562 64.683594 101.210938 64.699219 101.066406 64.722656 L 76.386719 68.773438 C 74.941406 69.007812 73.65625 69.820312 72.824219 71.019531 L 58.152344 92.171875 C 56.449219 94.621094 57.058594 97.988281 59.507812 99.6875 C 60.445312 100.339844 61.519531 100.652344 62.582031 100.652344 C 64.289062 100.652344 65.972656 99.84375 67.019531 98.332031 L 80.390625 79.058594 L 95.738281 76.542969 L 88.03125 104.316406 L 68.019531 176.480469 C 66.785156 180.921875 69.386719 185.519531 73.824219 186.75 C 78.265625 187.984375 82.863281 185.382812 84.09375 180.941406 L 98.9375 127.425781 L 99.726562 124.582031 C 100.5625 126.808594 102.34375 128.660156 104.761719 129.5 Z M 104.761719 129.5 " fill-opacity="1" fill-rule="nonzero"/><path fill="#008037" d="M 120.078125 72.839844 C 128.15625 75.082031 136.523438 70.347656 138.765625 62.265625 C 141.007812 54.183594 136.277344 45.8125 128.195312 43.570312 C 120.117188 41.328125 111.75 46.058594 109.507812 54.144531 C 107.265625 62.226562 112 70.59375 120.078125 72.839844 Z M 125.527344 63.820312 C 130.207031 63.203125 133.640625 59.988281 134 62.699219 C 134.355469 65.410156 130.851562 68.105469 126.175781 68.726562 C 121.496094 69.34375 117.410156 67.648438 117.054688 64.9375 C 116.695312 62.226562 120.847656 64.4375 125.527344 63.820312 Z M 125.527344 63.820312 " fill-opacity="1" fill-rule="nonzero"/><g clip-path="url(#37c9079c17)"><path fill="#008037" d="M 19.746094 195.582031 L 20.019531 198.71875 L 95.753906 192.132812 L 91.824219 189.414062 Z M 19.746094 195.582031 " fill-opacity="1" fill-rule="nonzero"/></g><path fill="#008037" d="M 103.628906 180.582031 L 95.984375 181.933594 L 92.609375 185.476562 L 102.898438 183.621094 Z M 103.628906 180.582031 " fill-opacity="1" fill-rule="nonzero"/><path fill="#008037" d="M 94.253906 200.171875 L 86.730469 198.25 L 82.195312 200.085938 L 92.335938 202.640625 Z M 94.253906 200.171875 " fill-opacity="1" fill-rule="nonzero"/><g clip-path="url(#3d4ba20d74)"><path fill="#008037" d="M 183.960938 158.0625 L 175.5 156.527344 L 180.996094 148.597656 C 181.238281 148.246094 181.234375 147.78125 180.988281 147.433594 C 180.742188 147.085938 180.308594 146.929688 179.894531 147.042969 L 171.195312 149.425781 L 172.078125 139.386719 C 172.117188 138.949219 171.871094 138.539062 171.46875 138.367188 C 171.066406 138.191406 170.597656 138.296875 170.308594 138.628906 L 163.542969 146.351562 L 160.328125 139.347656 C 160.152344 138.964844 159.757812 138.726562 159.335938 138.761719 C 158.914062 138.789062 158.558594 139.078125 158.4375 139.480469 L 156.566406 145.773438 L 150.242188 139.660156 C 149.925781 139.351562 149.449219 139.285156 149.0625 139.496094 C 148.675781 139.703125 148.464844 140.136719 148.542969 140.570312 L 150.234375 149.816406 C 150.332031 150.367188 150.867188 150.730469 151.410156 150.632812 C 151.960938 150.53125 152.324219 150.003906 152.226562 149.453125 L 151.101562 143.304688 L 156.359375 148.386719 C 156.613281 148.636719 156.976562 148.726562 157.320312 148.640625 C 157.664062 148.550781 157.933594 148.289062 158.035156 147.949219 L 159.609375 142.640625 L 162.355469 148.613281 C 162.5 148.925781 162.789062 149.144531 163.128906 149.195312 C 163.46875 149.242188 163.808594 149.117188 164.035156 148.859375 L 169.789062 142.292969 L 169.050781 150.699219 C 169.023438 151.027344 169.15625 151.351562 169.410156 151.566406 C 169.664062 151.777344 170.007812 151.851562 170.324219 151.761719 L 177.742188 149.730469 L 172.9375 156.667969 C 172.742188 156.949219 172.703125 157.3125 172.835938 157.628906 C 172.964844 157.949219 173.25 158.179688 173.589844 158.238281 L 180.683594 159.527344 L 172.382812 163.839844 C 172.109375 163.984375 171.914062 164.246094 171.855469 164.554688 C 171.800781 164.859375 171.886719 165.175781 172.09375 165.410156 L 175.632812 169.40625 L 170.410156 169.027344 C 169.863281 168.992188 169.371094 169.40625 169.328125 169.964844 C 169.289062 170.523438 169.707031 171.007812 170.265625 171.046875 L 177.964844 171.605469 C 177.988281 171.605469 178.015625 171.605469 178.039062 171.605469 C 178.421875 171.605469 178.773438 171.390625 178.945312 171.042969 C 179.128906 170.671875 179.070312 170.230469 178.796875 169.921875 L 174.46875 165.039062 L 184.246094 159.957031 C 184.628906 159.757812 184.84375 159.335938 184.78125 158.90625 C 184.714844 158.480469 184.386719 158.140625 183.960938 158.0625 Z M 183.960938 158.0625 " fill-opacity="1" fill-rule="nonzero"/></g></svg>