<svg xmlns="http://www.w3.org/2000/svg" xmlns:xlink="http://www.w3.org/1999/xlink" width="275" zoomAndPan="magnify" viewBox="0 0 206.25 262.500001" height="350" preserveAspectRatio="xMidYMid meet" version="1.0"><defs><clipPath id="6912277e3e"><path d="M 0 0.226562 L 205.503906 0.226562 L 205.503906 261.773438 L 0 261.773438 Z M 0 0.226562 " clip-rule="nonzero"/></clipPath><clipPath id="f01a6ecefa"><path d="M 19.414062 68 L 152 68 L 152 218 L 19.414062 218 Z M 19.414062 68 " clip-rule="nonzero"/></clipPath><clipPath id="50151148a1"><path d="M 163 160 L 186 160 L 186 220.859375 L 163 220.859375 Z M 163 160 " clip-rule="nonzero"/></clipPath></defs><g clip-path="url(#6912277e3e)"><path fill="#ffffff" d="M 0 0.226562 L 205.503906 0.226562 L 205.503906 261.777344 L 0 261.777344 Z M 0 0.226562 " fill-opacity="1" fill-rule="nonzero"/><path fill="#ffffff" d="M 0 0.226562 L 205.503906 0.226562 L 205.503906 261.777344 L 0 261.777344 Z M 0 0.226562 " fill-opacity="1" fill-rule="nonzero"/></g><path fill="#008037" d="M 42.667969 147.441406 L 35.609375 207.089844 C 34.992188 212.328125 38.726562 217.074219 43.949219 217.695312 C 49.175781 218.316406 53.917969 214.578125 54.539062 209.339844 L 62.722656 140.148438 Z M 42.667969 147.441406 " fill-opacity="1" fill-rule="nonzero"/><path fill="#008037" d="M 45.195312 134.035156 L 44.222656 134.390625 C 44.21875 134.390625 44.214844 134.394531 44.210938 134.394531 L 43.953125 136.578125 L 58.921875 131.132812 C 58.648438 130.789062 58.296875 130.511719 57.886719 130.320312 C 57.496094 130.136719 57.089844 130.042969 56.671875 130.042969 C 56.34375 130.042969 56.019531 130.101562 55.710938 130.214844 L 54.707031 130.578125 C 53.777344 132.199219 52.324219 133.429688 50.550781 134.0625 C 50.058594 134.242188 49.539062 134.371094 49.019531 134.449219 C 47.699219 134.640625 46.390625 134.476562 45.195312 134.035156 Z M 45.195312 134.035156 " fill-opacity="1" fill-rule="nonzero"/><path fill="#008037" d="M 80.132812 131.925781 C 81.261719 131.515625 81.851562 130.253906 81.441406 129.125 L 80.816406 127.394531 C 80.40625 126.261719 79.144531 125.671875 78.015625 126.082031 L 64.230469 131.09375 L 63.929688 130.265625 C 63.230469 128.332031 61.8125 126.785156 59.945312 125.910156 C 58.574219 125.265625 57.085938 125.046875 55.628906 125.25 C 55.820312 126.300781 55.796875 127.371094 55.558594 128.40625 C 56.582031 128.148438 57.660156 128.25 58.636719 128.707031 C 59.761719 129.234375 60.609375 130.164062 61.03125 131.320312 L 61.332031 132.148438 L 41.148438 139.488281 L 40.847656 138.65625 C 40.035156 136.414062 41.066406 133.945312 43.15625 132.917969 C 42.320312 132.285156 41.605469 131.488281 41.070312 130.550781 C 38.082031 132.449219 36.691406 136.238281 37.949219 139.710938 L 38.246094 140.539062 L 24.460938 145.550781 C 23.332031 145.960938 22.742188 147.226562 23.152344 148.355469 L 23.777344 150.085938 C 24.1875 151.21875 25.445312 151.808594 26.578125 151.398438 Z M 80.132812 131.925781 " fill-opacity="1" fill-rule="nonzero"/><g clip-path="url(#f01a6ecefa)"><path fill="#008037" d="M 21.152344 117.632812 C 23.453125 121.375 27.800781 122.382812 32.003906 123.359375 C 37.386719 124.605469 40.992188 125.65625 42.09375 128.730469 C 43.101562 131.546875 45.933594 133.175781 48.777344 132.765625 C 49.179688 132.707031 49.582031 132.609375 49.980469 132.464844 C 53.183594 131.3125 54.851562 127.773438 53.703125 124.5625 C 50.25 114.902344 40.570312 112.660156 34.785156 111.316406 C 34.195312 111.179688 33.511719 111.019531 32.875 110.859375 C 33.816406 107.398438 34.867188 104.285156 35.960938 101.488281 C 37.152344 98.453125 38.398438 95.796875 39.632812 93.488281 L 42.449219 111.761719 C 47.371094 113.652344 52.601562 116.984375 55.121094 123.53125 C 55.632812 123.445312 56.152344 123.398438 56.671875 123.398438 C 58.0625 123.398438 59.417969 123.703125 60.695312 124.300781 C 62.722656 125.25 64.3125 126.839844 65.25 128.832031 L 77.410156 124.410156 C 77.84375 124.253906 78.296875 124.175781 78.753906 124.175781 C 80.417969 124.175781 81.914062 125.226562 82.480469 126.789062 L 83.105469 128.519531 C 83.464844 129.511719 83.417969 130.589844 82.96875 131.546875 C 82.519531 132.511719 81.726562 133.238281 80.738281 133.597656 L 70.488281 137.324219 L 88.136719 210.40625 C 89.378906 215.535156 94.527344 218.683594 99.640625 217.445312 C 104.757812 216.203125 107.902344 211.042969 106.664062 205.914062 L 85.898438 119.921875 L 80.226562 83.144531 C 84.625 85.34375 91.285156 89.78125 99.761719 98.703125 C 100.605469 99.589844 101.695312 100.207031 102.890625 100.472656 L 122.085938 104.75 C 118.6875 107.554688 114.652344 110.316406 112.070312 115.335938 C 109.648438 120.039062 111.757812 131.066406 112.347656 133.859375 L 110.667969 135.871094 C 109.820312 136.890625 109.953125 138.414062 110.96875 139.265625 C 111.980469 140.113281 113.503906 139.980469 114.351562 138.960938 L 115.960938 137.035156 C 118.964844 138.71875 123.96875 140.582031 131.207031 140.34375 C 137.878906 140.125 142.039062 138.644531 144.507812 137.261719 L 146.246094 139.34375 C 147.09375 140.359375 148.617188 140.496094 149.632812 139.644531 C 150.644531 138.796875 150.78125 137.269531 149.933594 136.253906 L 148.027344 133.972656 C 149.359375 131.089844 153.488281 120.964844 149.332031 114.070312 C 144.984375 106.863281 139.148438 104.59375 135.949219 102.574219 C 136.078125 102.253906 136.183594 101.921875 136.261719 101.574219 C 136.777344 99.253906 135.914062 96.953125 134.21875 95.515625 C 136.351562 93.234375 140.484375 90.964844 140.625 88.640625 C 140.792969 85.894531 127.664062 82.429688 130.066406 86.738281 C 132.46875 91.046875 120.519531 84.328125 118.625 86.609375 C 117.488281 87.976562 120.789062 90.199219 123.945312 92.5 L 107.375 88.8125 C 87.921875 68.882812 75.703125 68.527344 73.410156 68.671875 C 73.015625 68.695312 72.632812 68.757812 72.261719 68.851562 C 72.171875 68.863281 72.085938 68.867188 71.996094 68.878906 L 66.359375 69.753906 C 63.574219 74.589844 58.707031 78.171875 52.785156 79.089844 C 47.121094 79.964844 41.648438 78.230469 37.582031 74.785156 C 33.78125 79.015625 27.816406 87.183594 23.171875 100.523438 C 22.078125 103.65625 21.058594 107.066406 20.160156 110.785156 C 19.410156 113.890625 20.285156 116.222656 21.152344 117.632812 Z M 129.175781 117.960938 C 129.710938 118.359375 129.957031 118.484375 131.984375 119.457031 C 135.792969 121.328125 136.96875 122.597656 136.96875 124.816406 C 136.96875 127.285156 135.046875 128.882812 131.703125 129.179688 L 131.703125 131.078125 L 129.816406 131.078125 L 129.816406 129.179688 C 127.789062 129.007812 125.9375 128.183594 124.480469 126.8125 L 126.933594 125.191406 C 128.464844 126.511719 129.425781 126.9375 130.917969 126.9375 C 132.449219 126.9375 133.410156 126.164062 133.410156 124.941406 C 133.410156 124.269531 133.054688 123.621094 132.449219 123.121094 C 131.84375 122.648438 131.488281 122.449219 129.390625 121.402344 C 125.902344 119.65625 124.800781 118.460938 124.800781 116.4375 C 124.800781 114.144531 126.757812 112.449219 129.816406 112.125 L 129.816406 110.578125 L 131.703125 110.578125 L 131.703125 112.125 C 133.554688 112.273438 135.117188 112.875 136.503906 113.972656 L 134.050781 115.667969 C 133.089844 114.742188 132.128906 114.371094 130.847656 114.371094 C 129.246094 114.371094 128.25 115.09375 128.25 116.265625 C 128.25 116.914062 128.570312 117.511719 129.175781 117.960938 Z M 129.175781 117.960938 " fill-opacity="1" fill-rule="nonzero"/></g><path fill="#008037" d="M 52.527344 77.410156 C 61.992188 75.941406 68.480469 67.0625 67.015625 57.578125 C 65.550781 48.089844 56.691406 41.589844 47.226562 43.054688 C 37.761719 44.519531 31.273438 53.398438 32.738281 62.886719 C 34.199219 72.375 43.058594 78.875 52.527344 77.410156 Z M 53.234375 65.46875 C 58.464844 64.144531 61.933594 60.035156 62.703125 63.066406 C 63.464844 66.101562 59.847656 69.632812 54.621094 70.960938 C 49.394531 72.285156 44.535156 70.898438 43.769531 67.867188 C 43.003906 64.832031 48.007812 66.792969 53.234375 65.46875 Z M 53.234375 65.46875 " fill-opacity="1" fill-rule="nonzero"/><path fill="#008037" d="M 112.363281 217.453125 L 157.179688 217.453125 L 162.785156 145.867188 L 106.761719 145.867188 Z M 112.363281 217.453125 " fill-opacity="1" fill-rule="nonzero"/><g clip-path="url(#50151148a1)"><path fill="#008037" d="M 182.808594 181.714844 C 181.839844 177.566406 177.691406 174.980469 173.546875 175.953125 L 172.691406 176.152344 L 169.351562 161.839844 C 169.078125 160.667969 167.894531 159.933594 166.726562 160.207031 L 164.9375 160.628906 C 164.53125 160.722656 164.179688 160.933594 163.902344 161.210938 C 163.386719 161.730469 163.132812 162.492188 163.308594 163.257812 L 163.632812 164.644531 L 176.289062 218.855469 C 176.5625 220.027344 177.742188 220.761719 178.914062 220.488281 L 180.699219 220.066406 C 181.871094 219.792969 182.601562 218.609375 182.328125 217.4375 L 178.988281 203.125 L 179.84375 202.921875 C 181.84375 202.453125 183.542969 201.230469 184.628906 199.472656 C 185.71875 197.714844 186.0625 195.644531 185.59375 193.640625 Z M 182.011719 197.839844 C 181.355469 198.898438 180.339844 199.632812 179.140625 199.914062 L 178.285156 200.113281 L 173.394531 179.164062 L 174.25 178.960938 C 176.734375 178.382812 179.226562 179.929688 179.808594 182.417969 L 182.589844 194.34375 C 182.871094 195.542969 182.664062 196.785156 182.011719 197.839844 Z M 182.011719 197.839844 " fill-opacity="1" fill-rule="nonzero"/></g><path fill="#008037" d="M 152.894531 117.8125 C 153.003906 117.863281 153.117188 117.886719 153.230469 117.886719 C 153.515625 117.886719 153.792969 117.726562 153.925781 117.449219 C 154.71875 115.796875 154.859375 114.261719 154.34375 112.878906 C 153.546875 110.746094 151.460938 109.832031 151.371094 109.792969 C 150.980469 109.621094 150.527344 109.804688 150.359375 110.195312 C 150.191406 110.589844 150.375 111.042969 150.765625 111.210938 C 150.78125 111.21875 152.339844 111.925781 152.898438 113.421875 C 153.261719 114.394531 153.140625 115.523438 152.535156 116.78125 C 152.351562 117.164062 152.511719 117.625 152.894531 117.8125 Z M 152.894531 117.8125 " fill-opacity="1" fill-rule="nonzero"/><path fill="#008037" d="M 156.109375 118.941406 C 156.226562 119.003906 156.347656 119.03125 156.472656 119.03125 C 156.746094 119.03125 157.015625 118.882812 157.152344 118.621094 C 158.429688 116.207031 158.738281 113.9375 158.070312 111.867188 C 157.058594 108.71875 154.144531 107.25 154.019531 107.1875 C 153.640625 107 153.175781 107.15625 152.988281 107.539062 C 152.800781 107.921875 152.957031 108.382812 153.339844 108.574219 C 153.363281 108.585938 155.789062 109.808594 156.601562 112.34375 C 157.136719 114 156.863281 115.867188 155.789062 117.898438 C 155.589844 118.273438 155.734375 118.742188 156.109375 118.941406 Z M 156.109375 118.941406 " fill-opacity="1" fill-rule="nonzero"/></svg>