<svg xmlns="http://www.w3.org/2000/svg" xmlns:xlink="http://www.w3.org/1999/xlink" width="275" zoomAndPan="magnify" viewBox="0 0 206.25 262.500001" height="350" preserveAspectRatio="xMidYMid meet" version="1.0"><defs><g/><clipPath id="348a5c428f"><path d="M 0 0.226562 L 205.503906 0.226562 L 205.503906 261.773438 L 0 261.773438 Z M 0 0.226562 " clip-rule="nonzero"/></clipPath></defs><g clip-path="url(#348a5c428f)"><path fill="#ffffff" d="M 0 0.226562 L 205.503906 0.226562 L 205.503906 261.773438 L 0 261.773438 Z M 0 0.226562 " fill-opacity="1" fill-rule="nonzero"/><path fill="#ffffff" d="M 0 0.226562 L 205.503906 0.226562 L 205.503906 261.773438 L 0 261.773438 Z M 0 0.226562 " fill-opacity="1" fill-rule="nonzero"/></g><g fill="#008037" fill-opacity="1"><g transform="translate(52.53163, 124.526175)"><g><path d="M 45.703125 0 L 39.6875 -1.421875 C 35.082031 -2.304688 29.957031 -3.828125 24.3125 -5.984375 C 18.675781 -8.140625 13.257812 -11.457031 8.0625 -15.9375 C 6.34375 -17.476562 4.90625 -19.367188 3.75 -21.609375 C 2.601562 -23.859375 2.03125 -26.160156 2.03125 -28.515625 C 2.03125 -29.523438 2.148438 -30.5 2.390625 -31.4375 C 3.210938 -34.394531 4.734375 -36.890625 6.953125 -38.921875 C 9.171875 -40.960938 11.664062 -42.75 14.4375 -44.28125 C 17.207031 -45.820312 20.070312 -47.332031 23.03125 -48.8125 L 25.78125 -50.21875 C 27.957031 -51.34375 30.203125 -52.378906 32.515625 -53.328125 L 0 -53.328125 L -0.796875 -55.09375 L 49.421875 -55.09375 L 50.21875 -53.328125 L 45.703125 -53.328125 Z M 37.296875 -4.78125 L 37.296875 -43.046875 C 36.585938 -42.515625 35.816406 -42.015625 34.984375 -41.546875 C 31.859375 -39.421875 28.703125 -37.320312 25.515625 -35.25 C 21.378906 -33.070312 17.832031 -30.238281 14.875 -26.75 C 13.757812 -25.09375 13.203125 -23.378906 13.203125 -21.609375 C 13.203125 -19.835938 13.757812 -18.125 14.875 -16.46875 C 18.832031 -11.28125 26.304688 -7.382812 37.296875 -4.78125 Z M 37.296875 -4.78125 "/></g></g></g><g fill="#008037" fill-opacity="1"><g transform="translate(101.957219, 124.526175)"><g><path d="M 12.140625 0 L 3.71875 -2.03125 L 3.71875 -53.328125 L 0 -53.328125 L -0.796875 -55.09375 L 3.71875 -55.09375 L 3.71875 -58.015625 L 12.140625 -60.0625 L 12.140625 -55.09375 L 15.859375 -55.09375 L 16.65625 -53.328125 L 12.140625 -53.328125 Z M 12.140625 0 "/></g></g></g><g fill="#008037" fill-opacity="1"><g transform="translate(117.812378, 124.526175)"><g><path d="M 18.6875 -25.421875 C 17.332031 -25.421875 15.945312 -25.597656 14.53125 -25.953125 C 10.570312 -26.953125 7.5 -28.796875 5.3125 -31.484375 C 3.125 -34.171875 2.03125 -37.140625 2.03125 -40.390625 C 2.03125 -44.460938 3.6875 -48.125 7 -51.375 C 9.71875 -53.851562 12.960938 -55.09375 16.734375 -55.09375 C 19.222656 -55.09375 21.71875 -54.441406 24.21875 -53.140625 C 26.726562 -51.847656 28.929688 -49.8125 30.828125 -47.03125 C 32.359375 -44.488281 33.125 -41.953125 33.125 -39.421875 C 33.125 -35.753906 31.78125 -32.503906 29.09375 -29.671875 C 26.40625 -26.835938 22.9375 -25.421875 18.6875 -25.421875 Z M 15.328125 -30.375 C 17.035156 -30.375 18.847656 -31.128906 20.765625 -32.640625 C 22.691406 -34.148438 24.421875 -36.585938 25.953125 -39.953125 C 26.367188 -41.015625 26.578125 -41.988281 26.578125 -42.875 C 26.578125 -44.644531 25.957031 -46.085938 24.71875 -47.203125 C 23.476562 -48.328125 22 -48.890625 20.28125 -48.890625 C 18.925781 -48.890625 17.539062 -48.476562 16.125 -47.65625 C 14.707031 -46.832031 13.40625 -45.472656 12.21875 -43.578125 C 10.625 -40.859375 9.828125 -38.5 9.828125 -36.5 C 9.828125 -32.769531 11.660156 -30.726562 15.328125 -30.375 Z M 40.5625 4.6875 L 40.03125 4.609375 C 37.726562 3.773438 35.84375 2.207031 34.375 -0.09375 L 34.015625 -0.53125 C 32.835938 -2.59375 30.828125 -4.863281 27.984375 -7.34375 C 25.148438 -9.832031 20.601562 -11.84375 14.34375 -13.375 L 12.21875 -13.46875 C 11.21875 -13.46875 9.890625 -14.085938 8.234375 -15.328125 L 7.796875 -15.671875 C 6.023438 -16.972656 4.429688 -18.507812 3.015625 -20.28125 L 2.828125 -20.546875 C 1.359375 -22.203125 0.625 -23.5625 0.625 -24.625 L 0.625 -24.890625 C 0.851562 -25.535156 1.265625 -25.859375 1.859375 -25.859375 L 2.65625 -25.6875 C 4.3125 -25.039062 6.023438 -24.476562 7.796875 -24 C 9.859375 -23.46875 11.894531 -22.757812 13.90625 -21.875 C 20.9375 -18.625 26.296875 -15.242188 29.984375 -11.734375 C 33.671875 -8.222656 37.257812 -3.425781 40.75 2.65625 C 41.101562 3.125 41.28125 3.597656 41.28125 4.078125 C 41.28125 4.484375 41.039062 4.6875 40.5625 4.6875 Z M 40.5625 4.6875 "/></g></g></g><g fill="#008037" fill-opacity="1"><g transform="translate(25.827954, 200.001715)"><g><path d="M 17.71875 0 L 4.515625 0 L 4.515625 -60.40625 L 17.71875 -60.40625 Z M 17.71875 0 "/></g></g></g><g fill="#008037" fill-opacity="1"><g transform="translate(48.060614, 200.001715)"><g><path d="M 18.515625 -51.734375 C 18.515625 -49.609375 17.789062 -47.835938 16.34375 -46.421875 C 14.894531 -45.003906 13.140625 -44.296875 11.078125 -44.296875 C 9.003906 -44.296875 7.242188 -45.015625 5.796875 -46.453125 C 4.347656 -47.898438 3.625 -49.660156 3.625 -51.734375 C 3.625 -52.734375 3.816406 -53.675781 4.203125 -54.5625 C 4.585938 -55.445312 5.117188 -56.226562 5.796875 -56.90625 C 6.484375 -57.59375 7.269531 -58.125 8.15625 -58.5 C 9.039062 -58.882812 10.015625 -59.078125 11.078125 -59.078125 C 12.078125 -59.078125 13.035156 -58.882812 13.953125 -58.5 C 14.867188 -58.125 15.664062 -57.59375 16.34375 -56.90625 C 17.019531 -56.226562 17.550781 -55.445312 17.9375 -54.5625 C 18.320312 -53.675781 18.515625 -52.734375 18.515625 -51.734375 Z M 17.625 0 L 4.421875 0 L 4.421875 -37.296875 L 17.625 -37.296875 Z M 17.625 0 "/></g></g></g><g fill="#008037" fill-opacity="1"><g transform="translate(70.293275, 200.001715)"><g><path d="M 34.90625 -12.578125 C 34.90625 -8.328125 33.304688 -4.929688 30.109375 -2.390625 C 26.921875 0.148438 22.582031 1.421875 17.09375 1.421875 C 12.019531 1.421875 7.0625 -0.0234375 2.21875 -2.921875 L 7 -12.21875 C 10.78125 -9.738281 14.289062 -8.5 17.53125 -8.5 C 20.3125 -8.5 21.703125 -9.445312 21.703125 -11.34375 C 21.703125 -12.050781 21.566406 -12.550781 21.296875 -12.84375 C 21.035156 -13.132812 20.535156 -13.398438 19.796875 -13.640625 C 19.054688 -13.878906 17.992188 -14.160156 16.609375 -14.484375 C 15.222656 -14.804688 13.4375 -15.351562 11.25 -16.125 C 7.113281 -17.769531 5.046875 -20.867188 5.046875 -25.421875 C 5.046875 -27.253906 5.414062 -28.984375 6.15625 -30.609375 C 6.894531 -32.234375 7.972656 -33.632812 9.390625 -34.8125 C 10.804688 -35.988281 12.546875 -36.914062 14.609375 -37.59375 C 16.679688 -38.28125 19.046875 -38.625 21.703125 -38.625 C 25.835938 -38.625 29.851562 -37.828125 33.75 -36.234375 L 29.3125 -27.71875 C 26.832031 -28.957031 24.472656 -29.578125 22.234375 -29.578125 C 19.578125 -29.578125 18.25 -28.664062 18.25 -26.84375 C 18.25 -26.1875 18.660156 -25.679688 19.484375 -25.328125 C 20.316406 -24.972656 21.351562 -24.632812 22.59375 -24.3125 C 23.832031 -23.988281 25.160156 -23.601562 26.578125 -23.15625 C 27.992188 -22.71875 29.320312 -22.082031 30.5625 -21.25 C 31.800781 -20.425781 32.832031 -19.320312 33.65625 -17.9375 C 34.488281 -16.550781 34.90625 -14.765625 34.90625 -12.578125 Z M 34.90625 -12.578125 "/></g></g></g><g fill="#008037" fill-opacity="1"><g transform="translate(107.406751, 200.001715)"><g><path d="M 43.84375 0 L 30.640625 0 L 30.640625 -18.859375 C 30.640625 -20.816406 30.492188 -22.398438 30.203125 -23.609375 C 29.910156 -24.816406 29.5 -25.726562 28.96875 -26.34375 C 28.4375 -26.96875 27.800781 -27.382812 27.0625 -27.59375 C 26.320312 -27.800781 25.507812 -27.90625 24.625 -27.90625 C 22.613281 -27.90625 20.957031 -27.253906 19.65625 -25.953125 C 18.363281 -24.648438 17.71875 -22.671875 17.71875 -20.015625 L 17.71875 0 L 4.515625 0 L 4.515625 -60.40625 L 17.71875 -60.40625 L 17.71875 -32.59375 C 18.664062 -33.71875 19.566406 -34.632812 20.421875 -35.34375 C 21.273438 -36.050781 22.171875 -36.609375 23.109375 -37.015625 C 24.054688 -37.429688 25.0625 -37.726562 26.125 -37.90625 C 27.1875 -38.082031 28.398438 -38.171875 29.765625 -38.171875 C 34.015625 -38.171875 37.421875 -36.957031 39.984375 -34.53125 C 42.554688 -32.113281 43.84375 -28.515625 43.84375 -23.734375 Z M 43.84375 0 "/></g></g></g></svg>