<svg xmlns="http://www.w3.org/2000/svg" xmlns:xlink="http://www.w3.org/1999/xlink" width="275" zoomAndPan="magnify" viewBox="0 0 206.25 262.500001" height="350" preserveAspectRatio="xMidYMid meet" version="1.0"><defs><clipPath id="7e2169ebb2"><path d="M 0 0.226562 L 205.503906 0.226562 L 205.503906 261.773438 L 0 261.773438 Z M 0 0.226562 " clip-rule="nonzero"/></clipPath><clipPath id="7cb1e9f6ec"><path d="M 37 134 L 124 134 L 124 220.84375 L 37 220.84375 Z M 37 134 " clip-rule="nonzero"/></clipPath><clipPath id="8979a2a9f6"><path d="M 94.621094 122 L 181.144531 122 L 181.144531 207.929688 L 94.621094 207.929688 Z M 94.621094 122 " clip-rule="nonzero"/></clipPath><clipPath id="c8918bcc3d"><path d="M 24.324219 76 L 111 76 L 111 163 L 24.324219 163 Z M 24.324219 76 " clip-rule="nonzero"/></clipPath><clipPath id="e2a6d2a34d"><path d="M 66 41.496094 L 153 41.496094 L 153 126 L 66 126 Z M 66 41.496094 " clip-rule="nonzero"/></clipPath></defs><g clip-path="url(#7e2169ebb2)"><path fill="#ffffff" d="M 0 0.226562 L 206.25 0.226562 L 206.25 269.996094 L 0 269.996094 Z M 0 0.226562 " fill-opacity="1" fill-rule="nonzero"/><path fill="#ffffff" d="M 0 0.226562 L 205.503906 0.226562 L 205.503906 261.773438 L 0 261.773438 Z M 0 0.226562 " fill-opacity="1" fill-rule="nonzero"/><path fill="#ffffff" d="M 0 0.226562 L 205.503906 0.226562 L 205.503906 261.773438 L 0 261.773438 Z M 0 0.226562 " fill-opacity="1" fill-rule="nonzero"/></g><g clip-path="url(#7cb1e9f6ec)"><path fill="#008037" d="M 123.28125 199.746094 C 123.007812 200.429688 122.503906 201.710938 112.84375 204.878906 C 108.652344 206.253906 102.894531 207.859375 100.472656 207.859375 C 100.015625 207.859375 99.34375 207.8125 98.792969 207.421875 C 97.167969 206.273438 97.316406 203.644531 97.488281 200.597656 C 97.554688 199.449219 97.65625 197.714844 97.484375 197.230469 C 96.496094 194.4375 94.554688 192.960938 91.542969 192.707031 C 91.105469 192.671875 90.679688 192.652344 90.277344 192.652344 C 87.632812 192.652344 85.835938 193.441406 84.945312 194.996094 C 83.324219 197.816406 84.605469 202.582031 86.484375 205.8125 C 86.777344 206.320312 87.046875 206.769531 87.285156 207.164062 C 88.347656 208.917969 89.046875 210.078125 88.574219 211.410156 C 88.066406 212.839844 86.664062 213.34375 83.59375 214.441406 C 83.191406 214.585938 82.757812 214.746094 82.285156 214.914062 C 79.027344 216.101562 75.761719 217.277344 72.496094 218.453125 C 70.808594 219.0625 65.871094 220.84375 65.871094 220.84375 L 65.308594 219.285156 C 64.929688 218.226562 64.476562 216.570312 63.953125 214.652344 C 62.570312 209.601562 59.699219 199.09375 56.785156 198.046875 C 56.464844 197.929688 56.164062 197.875 55.867188 197.875 C 54.53125 197.875 53.195312 199.132812 51.785156 200.46875 C 49.988281 202.167969 47.953125 204.09375 45.128906 204.09375 C 43.976562 204.09375 42.789062 203.757812 41.605469 203.09375 C 39.785156 202.070312 38.433594 200.167969 37.894531 197.878906 C 37.359375 195.585938 37.71875 193.292969 38.882812 191.59375 C 40.722656 188.898438 43.039062 188.585938 44.617188 188.585938 C 45.300781 188.585938 45.972656 188.652344 46.621094 188.710938 C 47.25 188.773438 47.839844 188.828125 48.417969 188.828125 C 49.117188 188.828125 49.675781 188.742188 50.179688 188.5625 C 51.320312 188.152344 52.015625 187.570312 52.378906 186.726562 C 53.507812 184.085938 51.296875 179.078125 49.515625 175.050781 C 48.449219 172.632812 47.4375 170.347656 47.066406 168.496094 L 47.019531 168.273438 C 46.515625 165.78125 46.265625 164.527344 46.777344 163.378906 C 47.375 162.03125 48.621094 161.636719 50.507812 161.035156 C 51.179688 160.820312 51.9375 160.578125 52.859375 160.246094 C 53.972656 159.847656 55.410156 159.460938 56.933594 159.046875 C 60.308594 158.128906 64.929688 156.878906 66.644531 155.15625 C 68.675781 153.121094 68.019531 151.941406 65.457031 148.824219 C 63.199219 146.070312 60.101562 142.296875 64.011719 137.632812 C 65.515625 135.839844 68.03125 134.726562 70.574219 134.726562 C 72.507812 134.726562 74.28125 135.378906 75.566406 136.566406 C 78.144531 138.945312 77.824219 141.828125 77.566406 144.140625 C 77.417969 145.496094 77.273438 146.777344 77.695312 147.796875 C 78.054688 148.671875 78.796875 149.675781 81.363281 149.675781 C 85.75 149.675781 92.257812 146.738281 97.007812 144.59375 C 98.765625 143.800781 97.628906 144.214844 98.765625 143.800781 L 99.289062 143.597656 C 101.296875 142.804688 103.558594 143.859375 104.246094 145.902344 C 104.597656 146.882812 104.539062 146.152344 105.285156 147.851562 C 109.480469 157.421875 112.613281 165.546875 108.46875 168.039062 C 107.335938 168.71875 106.050781 168.796875 105.179688 168.796875 C 104.523438 168.796875 103.851562 168.746094 103.203125 168.695312 C 102.574219 168.648438 101.929688 168.597656 101.332031 168.597656 C 100.304688 168.597656 99.570312 168.746094 99.019531 169.0625 C 96.359375 170.59375 95.121094 173.769531 95.933594 176.957031 C 96.617188 179.644531 98.734375 181.949219 101.082031 182.566406 C 101.570312 182.695312 102.03125 182.757812 102.453125 182.757812 C 103.988281 182.757812 105.0625 181.894531 106.425781 180.800781 C 107.503906 179.9375 108.722656 178.957031 110.3125 178.375 C 111.730469 177.859375 112.625 177.648438 113.414062 177.648438 C 115.925781 177.648438 116.605469 179.691406 117.386719 182.058594 C 117.570312 182.609375 117.777344 183.234375 118.03125 183.941406 C 118.246094 184.539062 118.789062 185.726562 119.417969 187.101562 C 122.707031 194.289062 124.042969 197.824219 123.28125 199.746094 " fill-opacity="1" fill-rule="nonzero"/></g><g clip-path="url(#8979a2a9f6)"><path fill="#008037" d="M 181.144531 179.554688 L 179.585938 180.113281 C 178.652344 180.453125 177.25 180.839844 175.476562 181.332031 C 172.144531 182.257812 167.582031 183.523438 163.929688 185.113281 C 158.785156 187.347656 158.171875 189.042969 158.144531 189.667969 C 158.109375 190.574219 159.609375 192.730469 160.703125 194.304688 C 162.871094 197.421875 165.324219 200.953125 164.019531 203.996094 C 163.179688 205.960938 161.019531 207.179688 157.417969 207.738281 C 156.714844 207.847656 156.050781 207.902344 155.445312 207.902344 C 149.148438 207.902344 149.121094 202.324219 149.105469 198.632812 C 149.09375 196.242188 149.078125 193.769531 147.878906 192.839844 C 147.457031 192.511719 146.734375 192.339844 145.789062 192.339844 C 141.554688 192.339844 134.347656 195.648438 129.582031 197.835938 C 127.714844 198.695312 126.105469 199.433594 124.996094 199.835938 L 123.4375 200.398438 L 122.875 198.839844 C 122.53125 197.882812 122.125 196.421875 121.609375 194.570312 C 120.703125 191.3125 119.464844 186.847656 117.96875 183.21875 C 115.832031 178.027344 114.285156 177.203125 113.71875 177.09375 C 113.640625 177.078125 113.558594 177.070312 113.46875 177.070312 C 112.210938 177.070312 110.246094 178.546875 108.511719 179.851562 C 106.199219 181.589844 103.808594 183.386719 101.34375 183.386719 C 98.800781 183.386719 96.859375 181.539062 95.570312 177.894531 C 94.554688 175.011719 94.585938 172.816406 95.667969 171.183594 C 97.351562 168.636719 100.859375 168.417969 104.257812 168.207031 C 106.550781 168.0625 109.148438 167.902344 109.90625 166.941406 C 111.964844 164.339844 109.308594 158.921875 106.960938 154.140625 C 104.988281 150.117188 103.125 146.320312 103.398438 143.28125 L 103.496094 142.230469 L 104.488281 141.871094 C 105.519531 141.496094 106.964844 140.867188 108.636719 140.136719 C 113.578125 137.972656 119.726562 135.285156 123.941406 135.285156 C 125.972656 135.285156 127.464844 135.910156 128.375 137.148438 C 129.515625 138.695312 129.40625 140.652344 129.304688 142.550781 C 129.191406 144.601562 129.085938 146.535156 130.4375 147.859375 C 131.75 149.140625 133.402344 149.820312 135.21875 149.820312 C 136.148438 149.820312 137.101562 149.644531 138.050781 149.296875 C 140.898438 148.257812 142.675781 146.097656 142.929688 143.378906 C 143.125 141.292969 142.261719 140.257812 141.0625 138.828125 C 140.238281 137.839844 139.300781 136.71875 138.710938 135.160156 C 138.003906 133.292969 137.679688 131.886719 138.265625 130.660156 C 138.921875 129.28125 140.335938 128.8125 142.296875 128.164062 C 142.863281 127.976562 143.507812 127.765625 144.222656 127.503906 C 144.78125 127.300781 145.941406 126.773438 147.28125 126.164062 C 152.273438 123.886719 156.59375 122.003906 158.875 122.003906 C 159.359375 122.003906 159.773438 122.082031 160.136719 122.242188 C 161.808594 122.976562 162.992188 125.792969 165.410156 134.796875 C 165.730469 135.988281 166.007812 137.019531 166.164062 137.484375 C 166.363281 138.070312 166.605469 138.667969 166.835938 139.246094 C 167.894531 141.867188 169.335938 145.460938 165.394531 147.558594 C 164.5 148.035156 163.492188 148.257812 162.226562 148.257812 C 161.527344 148.257812 160.828125 148.195312 160.152344 148.128906 C 159.488281 148.066406 158.863281 148.007812 158.25 148.007812 C 157.027344 148.007812 156.183594 148.253906 155.4375 148.832031 C 153.207031 150.554688 152.304688 154.082031 153.34375 157.03125 C 154.378906 159.976562 157.183594 162.113281 160.011719 162.113281 L 160.113281 162.113281 C 161.726562 162.085938 163.042969 160.808594 164.4375 159.457031 C 165.855469 158.082031 167.324219 156.65625 169.308594 156.515625 C 169.394531 156.511719 169.476562 156.507812 169.558594 156.507812 C 174 156.507812 176.648438 164.484375 179.410156 174.121094 C 179.878906 175.746094 180.277344 177.152344 180.582031 177.992188 L 181.144531 179.554688 " fill-opacity="1" fill-rule="nonzero"/></g><g clip-path="url(#c8918bcc3d)"><path fill="#008037" d="M 109.558594 115.417969 C 107.707031 117.519531 104.578125 117.523438 101.820312 117.527344 C 100.054688 117.53125 98.230469 117.53125 97.160156 118.078125 C 94.738281 119.308594 95.238281 121.691406 97.269531 126.574219 C 97.59375 127.359375 97.902344 128.097656 98.160156 128.808594 C 98.363281 129.382812 98.851562 130.382812 99.363281 131.441406 C 101.378906 135.582031 102.757812 138.675781 102.136719 140.757812 C 101.285156 143.605469 98.132812 144.601562 95.085938 145.566406 C 94.40625 145.78125 93.703125 146.003906 93.054688 146.242188 C 92.199219 146.550781 91.199219 147 90.144531 147.476562 C 87.6875 148.585938 84.902344 149.839844 82.476562 149.953125 C 81.839844 149.984375 81.359375 150 80.964844 150 C 79.929688 150 78.761719 149.929688 77.980469 149.113281 C 77.210938 148.308594 77.253906 147.285156 77.296875 146.296875 C 77.324219 145.679688 77.359375 144.90625 77.257812 143.917969 C 76.738281 138.855469 74.03125 135.835938 70.023438 135.835938 C 67.425781 135.835938 64.945312 137.164062 63.703125 139.21875 C 62.511719 141.191406 62.585938 143.578125 63.914062 146.121094 C 64.109375 146.496094 64.910156 147.277344 65.550781 147.902344 C 67.289062 149.597656 69.082031 151.351562 68.699219 153.339844 C 68.234375 155.742188 65.007812 156.820312 61.152344 157.886719 C 60.597656 158.042969 60.074219 158.183594 59.808594 158.28125 C 58.925781 158.601562 57.953125 159.03125 56.925781 159.484375 C 54.542969 160.535156 52.082031 161.617188 49.722656 161.867188 C 48.484375 162 48.140625 162.273438 47.992188 162.394531 C 47.816406 162.53125 47.402344 162.863281 46.777344 162.863281 C 45.640625 162.863281 45.207031 161.921875 45 161.46875 C 44.8125 161.0625 44.46875 160.300781 43.664062 158.972656 C 42.804688 157.546875 42.296875 155.835938 41.808594 154.179688 C 41.589844 153.453125 41.386719 152.765625 41.167969 152.152344 C 41.027344 151.765625 40.699219 151.039062 40.316406 150.195312 C 37.871094 144.804688 36.878906 141.925781 37.871094 140.164062 C 39.085938 138.007812 41.574219 138.007812 42.394531 138.007812 C 43.035156 138.007812 43.695312 138.0625 44.335938 138.109375 C 44.953125 138.15625 45.535156 138.199219 46.078125 138.199219 C 46.585938 138.199219 46.984375 138.160156 47.296875 138.078125 C 49.945312 137.390625 51.917969 135.453125 52.570312 132.894531 C 53.226562 130.316406 52.398438 127.625 50.34375 125.695312 C 48.988281 124.414062 47.558594 123.792969 45.984375 123.792969 C 44.859375 123.792969 43.640625 124.113281 42.351562 124.75 C 41.96875 124.941406 41.078125 125.859375 40.425781 126.53125 C 38.808594 128.199219 37.28125 129.777344 35.59375 129.777344 L 35.488281 129.773438 C 32.183594 129.644531 29.804688 123.511719 26.023438 110.671875 C 25.578125 109.160156 25.195312 107.855469 24.972656 107.246094 L 24.410156 105.683594 L 25.96875 105.121094 C 27.6875 104.5 29.875 103.921875 32.191406 103.304688 C 37.164062 101.980469 43.359375 100.332031 45.9375 97.859375 C 47.128906 96.722656 47.726562 95.828125 47.671875 95.265625 C 47.617188 94.714844 46.960938 93.933594 46.199219 93.03125 C 45.457031 92.152344 44.535156 91.058594 43.734375 89.660156 C 42.136719 86.871094 42.144531 83.414062 43.75 80.636719 C 45.109375 78.289062 47.332031 76.9375 49.847656 76.9375 C 51.226562 76.9375 52.632812 77.351562 54.023438 78.160156 C 57.742188 80.328125 57.566406 84.09375 57.429688 87.117188 C 57.292969 90.136719 57.378906 91.546875 58.824219 92.347656 C 59.171875 92.539062 59.671875 92.636719 60.308594 92.636719 C 63.320312 92.636719 67.96875 90.515625 71.363281 88.964844 C 72.695312 88.355469 73.84375 87.828125 74.71875 87.511719 C 75.507812 87.226562 76.148438 86.957031 76.71875 86.71875 C 77.867188 86.234375 78.695312 85.886719 79.632812 85.886719 C 81.34375 85.886719 82.488281 87.121094 83.511719 88.382812 C 85.214844 90.484375 86.144531 93.960938 86.964844 97.035156 C 87.316406 98.355469 87.652344 99.601562 88 100.566406 C 88.207031 101.136719 88.40625 101.722656 88.601562 102.316406 C 89.808594 105.914062 90.75 108.273438 92.699219 108.273438 C 93.199219 108.273438 93.785156 108.140625 94.445312 107.886719 C 95.246094 107.574219 95.972656 106.746094 96.742188 105.871094 C 97.863281 104.597656 99.132812 103.152344 101.140625 102.664062 C 101.757812 102.515625 102.390625 102.4375 103.015625 102.4375 C 106.988281 102.4375 110.363281 105.46875 110.859375 109.484375 C 111.183594 112.117188 110.757812 114.054688 109.558594 115.417969 " fill-opacity="1" fill-rule="nonzero"/></g><g clip-path="url(#e2a6d2a34d)"><path fill="#008037" d="M 152.984375 80.949219 C 153.0625 82.789062 151.355469 84.066406 150.351562 84.691406 C 149.148438 87.148438 146.988281 89.277344 144.890625 91.339844 C 143.578125 92.632812 142.332031 93.859375 141.4375 95.054688 C 138.757812 98.644531 138.777344 99.753906 138.847656 100.003906 C 138.972656 100.460938 140.328125 101.019531 141.523438 101.511719 C 143.070312 102.148438 144.988281 102.9375 146.863281 104.332031 C 149.683594 106.429688 150.753906 109.789062 149.660156 113.109375 C 148.527344 116.527344 145.453125 118.917969 142.175781 118.917969 C 140.769531 118.917969 139.402344 118.5 138.109375 117.675781 C 135.726562 116.152344 134.566406 113.820312 133.632812 111.945312 C 132.699219 110.066406 132.210938 109.246094 131.472656 109.246094 C 131.007812 109.246094 130.113281 109.464844 128.488281 110.527344 C 126.214844 112.007812 123.941406 115.128906 121.933594 117.882812 C 120.949219 119.234375 120.019531 120.507812 119.101562 121.59375 C 116.816406 124.292969 115.320312 125.949219 113.382812 125.949219 C 111.789062 125.949219 110.613281 124.90625 108.671875 123.183594 C 108.117188 122.695312 107.492188 122.140625 106.765625 121.527344 C 106.28125 121.117188 105.414062 120.507812 104.40625 119.800781 C 100.355469 116.964844 97.203125 114.605469 96.511719 112.28125 C 95.328125 108.316406 97.910156 107.296875 99.453125 106.691406 C 100.195312 106.398438 100.960938 106.097656 101.648438 105.546875 C 104.308594 103.417969 105.742188 100.261719 105.308594 97.503906 C 104.941406 95.167969 103.296875 93.386719 100.558594 92.347656 C 99.484375 91.941406 98.484375 91.734375 97.597656 91.734375 C 93.226562 91.734375 91.273438 96.84375 89.34375 103.015625 L 88.464844 105.8125 L 66.9375 87.976562 L 68.011719 86.699219 C 68.46875 86.152344 69.304688 85.019531 70.269531 83.710938 C 77.054688 74.511719 81.328125 69.523438 84.460938 69.523438 C 84.808594 69.523438 85.144531 69.582031 85.460938 69.699219 C 87.316406 70.378906 88.226562 72.46875 89.105469 74.484375 C 89.742188 75.941406 90.464844 77.59375 91.34375 78.144531 C 92.640625 78.953125 93.949219 79.363281 95.234375 79.363281 C 96.253906 79.363281 97.296875 79.101562 98.328125 78.589844 C 101.046875 77.238281 102.511719 75.253906 102.566406 72.851562 C 102.628906 69.90625 100.542969 66.75 97.371094 64.992188 C 96.226562 64.355469 95.269531 63.949219 94.5 63.621094 C 93.148438 63.050781 91.980469 62.554688 91.628906 61.269531 C 91.210938 59.761719 92.195312 58.410156 94.351562 55.453125 C 94.699219 54.972656 95.09375 54.417969 95.519531 53.816406 C 97.667969 50.769531 100.5625 46.664062 103.277344 44.761719 C 103.796875 43.589844 104.945312 41.496094 107.054688 41.496094 C 109.085938 41.496094 110.5 43.566406 111.097656 44.539062 C 112.96875 46.117188 114.835938 47.691406 116.707031 49.269531 C 117.304688 49.773438 118.011719 50.46875 118.828125 51.273438 C 120.75 53.167969 123.972656 56.339844 125.726562 56.453125 C 125.832031 56.457031 125.929688 56.460938 126.027344 56.460938 C 127.964844 56.460938 128.585938 55.160156 129.640625 51.957031 C 130.652344 48.875 132.039062 44.652344 137.210938 44.652344 L 137.375 44.652344 C 139.660156 44.691406 141.992188 45.902344 143.621094 47.886719 C 145.144531 49.746094 145.804688 52.011719 145.429688 54.101562 C 144.792969 57.628906 142.234375 58.832031 140.179688 59.796875 C 139.242188 60.238281 138.351562 60.652344 137.660156 61.246094 C 136.453125 62.289062 135.878906 63.242188 135.910156 64.167969 C 135.984375 66.386719 139.433594 68.972656 142.207031 71.046875 C 143.203125 71.792969 144.144531 72.496094 144.980469 73.199219 C 146.734375 74.671875 148.492188 76.15625 150.25 77.644531 C 152.011719 78.523438 152.929688 79.632812 152.984375 80.949219 " fill-opacity="1" fill-rule="nonzero"/></g><path fill="#ffffff" d="M 87.804688 106.613281 C 88 106.769531 88.230469 106.851562 88.464844 106.851562 C 88.761719 106.851562 89.058594 106.722656 89.261719 106.472656 C 89.625 106.035156 89.566406 105.378906 89.125 105.015625 L 69.929688 89.109375 C 69.488281 88.746094 68.835938 88.808594 68.472656 89.25 C 68.105469 89.691406 68.167969 90.34375 68.609375 90.707031 Z M 123.789062 201.375 C 123.671875 201.414062 123.554688 201.433594 123.4375 201.433594 C 123.011719 201.433594 122.617188 201.171875 122.464844 200.75 L 121.902344 199.191406 C 121.542969 198.195312 121.132812 196.71875 120.613281 194.847656 C 119.714844 191.613281 118.484375 187.183594 117.011719 183.613281 C 114.890625 178.464844 113.53125 178.113281 113.515625 178.109375 C 113.5 178.105469 113.484375 178.105469 113.46875 178.105469 C 112.558594 178.105469 110.496094 179.65625 109.132812 180.679688 C 106.6875 182.523438 104.15625 184.425781 101.34375 184.425781 C 99.261719 184.425781 96.398438 183.351562 94.597656 178.238281 C 93.464844 175.027344 93.53125 172.535156 94.804688 170.609375 C 96.769531 167.636719 100.714844 167.390625 104.191406 167.171875 C 105.742188 167.074219 108.625 166.894531 109.097656 166.296875 C 110.75 164.207031 108.136719 158.878906 106.035156 154.597656 C 104.53125 151.53125 103.109375 148.632812 102.566406 145.984375 L 101.871094 145.921875 C 99.125 145.667969 95.460938 147.476562 91.578125 149.386719 C 86.527344 151.871094 80.804688 154.683594 77.695312 152.21875 C 76.371094 151.171875 76.210938 148.570312 76.042969 145.816406 C 75.84375 142.664062 75.640625 139.410156 73.53125 138.011719 C 72.1875 137.117188 70.292969 137.125 67.746094 138.027344 C 64.5625 139.152344 62.945312 140.769531 62.945312 142.828125 C 62.945312 144.953125 64.636719 147.207031 66.269531 149.382812 C 67.738281 151.34375 69.257812 153.367188 69.257812 154.972656 C 69.257812 155.128906 69.242188 155.28125 69.214844 155.421875 C 68.898438 157.035156 66.628906 158.722656 62.476562 160.4375 C 58.796875 161.957031 54.300781 163.207031 51.019531 164.121094 C 49.195312 164.628906 47.757812 165.03125 46.832031 165.363281 L 45.277344 165.929688 C 45.160156 165.96875 45.042969 165.988281 44.925781 165.988281 C 44.503906 165.988281 44.101562 165.726562 43.953125 165.304688 C 43.757812 164.765625 44.035156 164.171875 44.574219 163.980469 L 46.132812 163.414062 C 47.128906 163.054688 48.601562 162.648438 50.46875 162.125 C 53.695312 161.226562 58.121094 159.992188 61.6875 158.519531 C 66.832031 156.394531 67.179688 155.03125 67.183594 155.019531 C 67.1875 155.003906 67.1875 154.988281 67.1875 154.972656 C 67.1875 154.058594 65.640625 151.996094 64.617188 150.632812 C 62.777344 148.179688 60.878906 145.644531 60.878906 142.828125 C 60.878906 140.742188 61.949219 137.878906 67.054688 136.074219 C 70.257812 134.9375 72.75 135.007812 74.671875 136.28125 C 77.644531 138.25 77.890625 142.199219 78.105469 145.679688 C 78.203125 147.234375 78.378906 150.121094 78.980469 150.59375 C 81.066406 152.25 86.386719 149.628906 90.664062 147.527344 C 94.816406 145.484375 98.734375 143.550781 102.058594 143.855469 L 103.109375 143.953125 C 103.410156 143.980469 103.664062 144.132812 103.835938 144.355469 C 104.183594 144.476562 104.457031 144.773438 104.519531 145.164062 C 104.925781 147.636719 106.367188 150.574219 107.890625 153.679688 C 110.371094 158.738281 113.183594 164.46875 110.71875 167.585938 C 109.675781 168.910156 107.074219 169.070312 104.324219 169.242188 C 101.175781 169.4375 97.929688 169.636719 96.53125 171.753906 C 95.640625 173.097656 95.648438 174.992188 96.546875 177.546875 C 97.671875 180.734375 99.285156 182.351562 101.34375 182.351562 C 103.464844 182.351562 105.714844 180.660156 107.890625 179.023438 C 109.847656 177.554688 111.867188 176.035156 113.46875 176.035156 C 113.625 176.035156 113.777344 176.046875 113.917969 176.078125 C 115.527344 176.394531 117.214844 178.664062 118.925781 182.824219 C 120.441406 186.507812 121.695312 191.007812 122.609375 194.292969 C 123.117188 196.121094 123.515625 197.5625 123.847656 198.488281 L 124.410156 200.046875 C 124.605469 200.585938 124.324219 201.179688 123.789062 201.375 " fill-opacity="1" fill-rule="nonzero"/></svg>